<?xml version="1.0" encoding="UTF-8" standalone="no"?>
<!-- Created with Inkscape (http://www.inkscape.org/) -->

<svg
   xmlns:dc="http://purl.org/dc/elements/1.1/"
   xmlns:cc="http://creativecommons.org/ns#"
   xmlns:rdf="http://www.w3.org/1999/02/22-rdf-syntax-ns#"
   xmlns:svg="http://www.w3.org/2000/svg"
   xmlns="http://www.w3.org/2000/svg"
   xmlns:sodipodi="http://sodipodi.sourceforge.net/DTD/sodipodi-0.dtd"
   xmlns:inkscape="http://www.inkscape.org/namespaces/inkscape"
   width="744.09448819"
   height="1052.3622047"
   id="svg2"
   version="1.1"
   inkscape:version="0.48.4 r9939"
   sodipodi:docname="comsentinel.svg">
  <defs
     id="defs4">
    <filter
       inkscape:collect="always"
       id="filter4427"
       x="-0.33973494"
       width="1.6794699"
       y="-0.37739421"
       height="1.7547884">
      <feGaussianBlur
         inkscape:collect="always"
         stdDeviation="23.811778"
         id="feGaussianBlur4429" />
    </filter>
  </defs>
  <sodipodi:namedview
     id="base"
     pagecolor="#ffffff"
     bordercolor="#666666"
     borderopacity="1.0"
     inkscape:pageopacity="0.0"
     inkscape:pageshadow="2"
     inkscape:zoom="2.8"
     inkscape:cx="295.15343"
     inkscape:cy="450.60032"
     inkscape:document-units="px"
     inkscape:current-layer="layer1"
     showgrid="false"
     inkscape:window-width="1886"
     inkscape:window-height="1062"
     inkscape:window-x="1114"
     inkscape:window-y="18"
     inkscape:window-maximized="1"
     showguides="true"
     inkscape:guide-bbox="true" />
  <metadata
     id="metadata7">
    <rdf:RDF>
      <cc:Work
         rdf:about="">
        <dc:format>image/svg+xml</dc:format>
        <dc:type
           rdf:resource="http://purl.org/dc/dcmitype/StillImage" />
        <dc:title></dc:title>
      </cc:Work>
    </rdf:RDF>
  </metadata>
  <g
     inkscape:label="Livello 1"
     inkscape:groupmode="layer"
     id="layer1">
    <rect
       style="fill:#ffffff;fill-opacity:1;stroke:#ffffff;stroke-width:8.62694073;stroke-linecap:round;stroke-miterlimit:4;stroke-opacity:1;stroke-dasharray:none"
       id="rect2996"
       width="113.15878"
       height="112.80164"
       x="130.74203"
       y="537.03278"
       ry="0"
       inkscape:export-filename="/home/fj/Dropbox/JOBS/JOB256-COM sentinel/icon/bigicon.png"
       inkscape:export-xdpi="47.431805"
       inkscape:export-ydpi="47.431805" />
    <rect
       style="opacity:0.91237117;fill:#ff0000;fill-opacity:1;stroke:#000000;stroke-width:0.0125;stroke-linecap:round;stroke-miterlimit:4;stroke-opacity:1;stroke-dasharray:none"
       id="rect4533"
       width="118.58896"
       height="118.58896"
       x="128.2948"
       y="534.40698"
       inkscape:export-filename="/home/fj/Dropbox/JOBS/JOB256-COM sentinel/icon/bigicon.png"
       inkscape:export-xdpi="47.431805"
       inkscape:export-ydpi="47.431805"
       ry="16.071472" />
    <g
       id="g2999"
       transform="matrix(0.99997667,-0.00683075,0.00683075,0.99997667,-1.396765,2.4271724)"
       inkscape:export-filename="/home/fj/Dropbox/JOBS/JOB256-COM sentinel/icon/bigicon.png"
       inkscape:export-xdpi="47.431805"
       inkscape:export-ydpi="47.431805">
      <path
         inkscape:export-ydpi="24.27"
         inkscape:export-xdpi="24.27"
         inkscape:export-filename="/home/fj/Dropbox/JOBS/JOB256-COM sentinel/icon/bell.png"
         sodipodi:nodetypes="cssccccccsccssscscccsscccccsssccccsccccccssccsscccccccc"
         id="path3613"
         d="m 182.59441,541.87812 c -4.10391,-3.6272 -10.34727,-3.22939 -13.94055,0.8664 -3.59329,4.09577 -3.19662,10.3623 0.88422,13.96912 2.78973,2.46568 6.5938,3.07531 9.87166,1.90521 0.60975,0.005 1.48413,0.40791 1.82996,0.71357 0.0231,0.0204 0.0461,0.0408 0.0922,0.0815 3.89539,3.77156 6.58331,7.37974 8.17283,10.14036 2.03207,3.56258 1.37504,16.90898 -0.72556,20.51642 -0.90078,1.58665 -1.74212,1.7058 -3.95546,-0.25044 0,0 -32.02427,-28.30437 -32.3701,-28.61003 -0.34583,-0.30566 -0.76636,-0.75949 -0.76706,-1.45853 l 0,0 c 0.40866,-3.17194 -0.69364,-6.48792 -3.27587,-8.7702 -4.1039,-3.6272 -10.34726,-3.2294 -13.94055,0.86639 -3.59328,4.09579 -3.19663,10.3623 0.90728,13.98951 2.60529,2.30266 6.08831,2.99828 9.18897,2.12348 l 0.0433,-0.003 c 0.0433,-0.003 0.0637,-0.0259 0.12733,-0.0518 0.0637,-0.0259 0.1273,-0.0518 0.21403,-0.0573 0.81275,-0.22656 1.36159,-0.1523 1.63826,0.0923 0.29973,0.26491 43.64431,38.57462 45.25821,40.00105 1.6139,1.42643 2.61253,2.76097 1.01528,4.34831 -1.59725,1.58733 -13.88361,4.86067 -20.60228,2.90749 -3.10383,-0.89456 -5.71492,-2.25746 -7.83604,-4.13218 l 0,0 c 0,0 -0.0922,-0.0816 -0.11528,-0.10184 -0.71473,-0.6317 -2.60529,-2.30266 -2.48593,-3.51181 0.2232,-3.0072 -0.90592,-6.05932 -3.32677,-8.19895 -4.1039,-3.6272 -10.34726,-3.2294 -13.94055,0.86639 -3.59328,4.09578 -3.30364,10.39097 0.80026,14.01817 2.74363,2.42492 6.46098,3.04008 9.65764,1.96254 0.83306,-0.2497 1.27765,-0.10329 3.21534,1.2807 1.93769,1.38394 6.28072,4.31866 11.04659,6.02488 5.77033,2.10099 11.75906,1.8068 18.48066,0.0241 4.90513,-1.25195 8.9634,-2.47176 12.60332,-2.04829 3.63993,0.42348 5.18323,0.39069 8.29573,3.14164 0,0 -0.20749,-0.1834 0,0 2.95113,2.60832 2.41575,3.77845 2.21591,5.77922 -0.85661,5.03559 0.80872,10.36927 4.91262,13.99647 0.023,0.0204 0.0692,0.0612 0.0922,0.0815 0.0461,0.0408 0.11529,0.10184 0.16139,0.14263 6.34031,5.60382 16.00884,4.98778 21.59163,-1.37572 5.58278,-6.36351 4.96852,-16.06793 -1.37178,-21.67173 -3.06641,-2.71021 -6.91178,-3.97261 -10.68933,-3.81931 -1.32651,0.0189 -2.6014,0.16575 -3.86251,0.53011 -2.72147,0.67587 -4.74241,0.04 -6.26409,-1.30491 l -5.55641,-4.91097 c -5.78695,-5.11476 -8.64352,-9.32391 -10.03523,-13.42976 -1.44609,-4.27716 -1.49549,-8.83994 -0.69846,-15.16067 0.9116,-6.91789 0.40415,-12.87151 -2.38193,-18.37409 -2.16285,-4.25334 -5.60437,-8.07567 -9.98942,-12.36219 -0.3947,-0.38993 -1.05302,-1.50586 -0.89785,-2.1493 l 0,0 c 0.34776,-3.10251 -0.75178,-6.37497 -3.2879,-8.61649 z"
         inkscape:connector-curvature="0"
         style="fill:#000000;fill-opacity:1;stroke:#000000;stroke-width:1.56295681;stroke-miterlimit:4;stroke-opacity:1;stroke-dasharray:none" />
      <g
         id="g2992">
        <path
           style="fill:#000000;fill-opacity:1"
           inkscape:connector-curvature="0"
           d="m 176.90085,594.34043 c 0,0 0.0305,-0.002 0,0 l 0,0 z"
           id="path3611"
           inkscape:export-filename="/home/fj/Dropbox/JOBS/JOB256-COM sentinel/icon/bell.png"
           inkscape:export-xdpi="24.27"
           inkscape:export-ydpi="24.27" />
        <path
           inkscape:export-ydpi="24.27"
           inkscape:export-xdpi="24.27"
           inkscape:export-filename="/home/fj/Dropbox/JOBS/JOB256-COM sentinel/icon/bell.png"
           inkscape:connector-curvature="0"
           d="m 162.31741,557.87451 c 1.59855,-1.79752 4.34246,-1.95092 6.12899,-0.33983 l 56.14344,50.63002 c 1.78653,1.61109 1.93665,4.37432 0.3381,6.17184 l -17.21293,19.35534 c -1.60048,1.79969 -4.34293,1.95146 -6.12947,0.34037 l -56.14398,-50.63052 c -1.78653,-1.61108 -1.9381,-4.37268 -0.33761,-6.17236 l 17.21292,-19.35535 5.4e-4,4.9e-4 z"
           style="fill:#ffff00;fill-opacity:1;stroke:#ff0000;stroke-width:1.45197761;stroke-opacity:1"
           id="path2239" />
        <path
           inkscape:export-ydpi="24.27"
           inkscape:export-xdpi="24.27"
           inkscape:export-filename="/home/fj/Dropbox/JOBS/JOB256-COM sentinel/icon/bell.png"
           inkscape:connector-curvature="0"
           d="m 192.26524,617.00417 c 3.02283,2.72597 7.24652,2.11635 9.38725,-1.35554 l 5.15503,-8.36722 c 2.14068,-3.47291 1.41941,-8.54776 -1.60341,-11.27373 l -20.58203,-18.56083 c -3.02228,-2.72549 -8.10905,-2.8893 -11.30381,-0.36597 l -7.69228,6.07913 c -3.19164,2.52419 -3.33082,6.81721 -0.30639,9.54464 l 26.94564,24.29952 z"
           style="fill:#ff0000;fill-opacity:1;stroke:#ff0000;stroke-width:0.72598881;stroke-opacity:1"
           id="path2261" />
        <circle
           d="m 46.813998,146.922 c 0,2.79124 -2.262753,5.054 -5.054,5.054 -2.791247,0 -5.054,-2.26276 -5.054,-5.054 0,-2.79125 2.262753,-5.054 5.054,-5.054 2.791247,0 5.054,2.26275 5.054,5.054 z"
           sodipodi:ry="5.0539999"
           sodipodi:rx="5.0539999"
           sodipodi:cy="146.922"
           sodipodi:cx="41.759998"
           cx="41.759998"
           cy="146.922"
           r="5.0539999"
           style="fill:#ff0000;fill-opacity:1;stroke:#ff0000;stroke-opacity:1"
           id="circle2265"
           transform="matrix(-0.53892359,-0.48600006,0.48265489,-0.54272895,163.70981,719.13492)"
           inkscape:export-filename="/home/fj/Dropbox/JOBS/JOB256-COM sentinel/icon/bell.png"
           inkscape:export-xdpi="24.27"
           inkscape:export-ydpi="24.27" />
        <circle
           d="m 140.582,146.922 c 0,2.79124 -2.26275,5.054 -5.054,5.054 -2.79125,0 -5.054,-2.26276 -5.054,-5.054 0,-2.79125 2.26275,-5.054 5.054,-5.054 2.79125,0 5.054,2.26275 5.054,5.054 z"
           sodipodi:ry="5.0539999"
           sodipodi:rx="5.0539999"
           sodipodi:cy="146.922"
           sodipodi:cx="135.528"
           cx="135.528"
           cy="146.922"
           r="5.0539999"
           style="fill:#ff0000;fill-opacity:1;stroke:#ff0000;stroke-opacity:1"
           id="circle2267"
           transform="matrix(-0.53892359,-0.48600006,0.48265489,-0.54272895,163.70981,719.13492)"
           inkscape:export-filename="/home/fj/Dropbox/JOBS/JOB256-COM sentinel/icon/bell.png"
           inkscape:export-xdpi="24.27"
           inkscape:export-ydpi="24.27" />
      </g>
    </g>
    <rect
       style="fill:none;stroke:#ff4b4b;stroke-width:8;stroke-linecap:round;stroke-miterlimit:4;stroke-opacity:0;stroke-dasharray:none;filter:url(#filter4427)"
       id="rect4425"
       width="168.21428"
       height="151.42857"
       x="275"
       y="582.00507" />
  </g>
</svg>
